<mxfile host="65bd71144e">
    <diagram id="-emcddN00o9NCEMy-clL" name="Page-1">
        <mxGraphModel dx="1033" dy="737" grid="0" gridSize="10" guides="1" tooltips="1" connect="1" arrows="1" fold="1" page="0" pageScale="1" pageWidth="850" pageHeight="1100" math="0" shadow="0">
            <root>
                <mxCell id="0"/>
                <mxCell id="1" parent="0"/>
                <mxCell id="2" value="50% - 1. semester" style="rounded=1;whiteSpace=wrap;html=1;strokeWidth=2;fillWeight=4;hachureGap=8;hachureAngle=45;fillColor=#f5f5f5;sketch=1;fontColor=#333333;strokeColor=#666666;verticalAlign=top;arcSize=5;fontSize=20;" vertex="1" parent="1">
                    <mxGeometry x="100" y="250" width="280" height="350" as="geometry"/>
                </mxCell>
                <mxCell id="3" value="50% - 2. semester" style="rounded=1;whiteSpace=wrap;html=1;strokeWidth=2;fillWeight=4;hachureGap=8;hachureAngle=45;fillColor=#f5f5f5;sketch=1;fontColor=#333333;strokeColor=#666666;verticalAlign=top;arcSize=4;fontSize=20;" vertex="1" parent="1">
                    <mxGeometry x="390" y="250" width="650" height="350" as="geometry"/>
                </mxCell>
                <mxCell id="4" value="50% Project Outcome&lt;br&gt;(whole team level)" style="rounded=1;whiteSpace=wrap;html=1;strokeWidth=2;fillWeight=4;hachureGap=8;hachureAngle=45;fillColor=#d5e8d4;sketch=1;fontSize=20;strokeColor=#82b366;arcSize=9;" vertex="1" parent="1">
                    <mxGeometry x="130" y="450" width="220" height="110" as="geometry"/>
                </mxCell>
                <mxCell id="5" value="50% Team Evaluation&lt;br&gt;(team level)" style="rounded=1;whiteSpace=wrap;html=1;strokeWidth=2;fillWeight=4;hachureGap=8;hachureAngle=45;fillColor=#dae8fc;sketch=1;fontSize=20;strokeColor=#6c8ebf;arcSize=9;" vertex="1" parent="1">
                    <mxGeometry x="130" y="320" width="220" height="110" as="geometry"/>
                </mxCell>
                <mxCell id="7" value="&lt;strike style=&quot;font-size: 20px;&quot;&gt;1. Klausurarbeit (K)&lt;br style=&quot;font-size: 20px;&quot;&gt;2. Seminararbeit (SE)&lt;br style=&quot;font-size: 20px;&quot;&gt;3. Mündliche Prüfung (MP)&lt;br style=&quot;font-size: 20px;&quot;&gt;4. Referat (R)&lt;br style=&quot;font-size: 20px;&quot;&gt;5. Testat (T)&lt;br style=&quot;font-size: 20px;&quot;&gt;&lt;/strike&gt;6. &lt;b style=&quot;font-size: 20px;&quot;&gt;Projektarbeit (PA)&lt;/b&gt;" style="text;whiteSpace=wrap;html=1;fontSize=20;" vertex="1" parent="1">
                    <mxGeometry x="410" y="280" width="195" height="170" as="geometry"/>
                </mxCell>
                <mxCell id="8" value="1" style="ellipse;whiteSpace=wrap;html=1;aspect=fixed;fillColor=#d5e8d4;strokeColor=#82b366;fontSize=64;fontColor=#009900;" vertex="1" parent="1">
                    <mxGeometry x="150" y="160" width="80" height="80" as="geometry"/>
                </mxCell>
                <mxCell id="11" value="Teilnote für die gesamte Gruppe" style="text;html=1;strokeColor=none;fillColor=none;align=left;verticalAlign=middle;whiteSpace=wrap;rounded=0;fontSize=20;fontColor=#000000;" vertex="1" parent="1">
                    <mxGeometry x="240" y="185" width="160" height="30" as="geometry"/>
                </mxCell>
                <mxCell id="12" value="75% Team Level&lt;br&gt;&lt;ul style=&quot;font-size: 14px&quot;&gt;&lt;li style=&quot;text-align: left&quot;&gt;Interactions, living the roles&lt;/li&gt;&lt;li style=&quot;text-align: left&quot;&gt;Using tools and processes&lt;/li&gt;&lt;li style=&quot;text-align: left&quot;&gt;Observable Agile behaviors within the team&lt;/li&gt;&lt;li style=&quot;text-align: left&quot;&gt;Potential product value&lt;/li&gt;&lt;/ul&gt;" style="rounded=1;whiteSpace=wrap;html=1;strokeWidth=2;fillWeight=4;hachureGap=8;hachureAngle=45;fillColor=#dae8fc;sketch=1;fontSize=20;strokeColor=#6c8ebf;arcSize=9;verticalAlign=top;" vertex="1" parent="1">
                    <mxGeometry x="660" y="310" width="350" height="150" as="geometry"/>
                </mxCell>
                <mxCell id="13" value="25% Whole Team Level&lt;span style=&quot;font-size: 14px&quot;&gt;&lt;br&gt;&lt;div style=&quot;text-align: left&quot;&gt;&lt;ul&gt;&lt;li&gt;&lt;span&gt;Observable Agile behaviors across teams - become a Learning Organization&lt;/span&gt;&lt;/li&gt;&lt;/ul&gt;&lt;/div&gt;&lt;/span&gt;" style="rounded=1;whiteSpace=wrap;html=1;strokeWidth=2;fillWeight=4;hachureGap=8;hachureAngle=45;fillColor=#d5e8d4;sketch=1;fontSize=20;strokeColor=#82b366;arcSize=9;verticalAlign=top;" vertex="1" parent="1">
                    <mxGeometry x="660" y="477.5" width="350" height="95" as="geometry"/>
                </mxCell>
                <mxCell id="14" value="&lt;ul style=&quot;font-size: 20px;&quot;&gt;&lt;li style=&quot;font-size: 20px;&quot;&gt;PM Review separate from Web Engineering&lt;/li&gt;&lt;li style=&quot;font-size: 20px;&quot;&gt;3 feedback cycles during the semester&lt;/li&gt;&lt;/ul&gt;" style="text;html=1;strokeColor=none;fillColor=none;align=left;verticalAlign=middle;whiteSpace=wrap;rounded=0;fontSize=20;fontColor=#000000;" vertex="1" parent="1">
                    <mxGeometry x="390" y="490" width="250" height="70" as="geometry"/>
                </mxCell>
            </root>
        </mxGraphModel>
    </diagram>
</mxfile>